<?xml version="1.0" standalone="no"?>
<!DOCTYPE svg PUBLIC "-//W3C//DTD SVG 20010904//EN"
 "http://www.w3.org/TR/2001/REC-SVG-20010904/DTD/svg10.dtd">
<svg version="1.0" xmlns="http://www.w3.org/2000/svg"
 width="1280.000000pt" height="640.000000pt" viewBox="0 0 1280.000000 640.000000"
 preserveAspectRatio="xMidYMid meet">

<g transform="translate(0.000000,640.000000) scale(0.100000,-0.100000)"
fill="#000000" stroke="none">
<path d="M11001 3994 l-24 -17 8 -156 c4 -86 8 -355 10 -598 4 -493 11 -578
54 -624 16 -17 66 -44 128 -69 82 -32 113 -40 167 -40 58 0 67 3 81 24 13 20
14 37 5 112 -5 49 -10 96 -10 105 0 9 -19 38 -42 64 l-43 49 -9 185 c-5 102
-9 229 -9 281 1 52 2 221 2 375 1 346 15 319 -167 323 -107 3 -131 0 -151 -14z"/>
<path d="M1750 3925 c-130 -37 -312 -144 -365 -215 -13 -18 -36 -66 -51 -107
-25 -68 -26 -78 -15 -125 40 -177 163 -300 376 -378 33 -13 76 -34 95 -48 64
-48 140 -125 140 -142 0 -35 -138 -130 -189 -130 -38 0 -147 40 -201 74 -51
32 -56 34 -80 19 -25 -15 -124 -134 -147 -178 -17 -31 -3 -45 86 -89 170 -85
350 -143 394 -127 14 6 74 17 132 26 59 9 121 23 139 32 57 29 179 163 220
242 48 91 52 160 17 263 -37 109 -35 107 -297 258 -84 49 -174 103 -201 120
-59 40 -123 100 -123 115 0 19 42 52 98 78 60 28 82 26 182 -20 90 -41 117
-41 172 2 49 39 118 129 118 156 0 26 -99 105 -175 138 -105 46 -237 60 -325
36z"/>
<path d="M5052 3911 c-145 -7 -144 -6 -163 -114 -9 -53 -9 -125 -3 -272 12
-274 11 -388 -5 -691 -7 -144 -10 -271 -6 -283 9 -30 30 -38 129 -51 104 -14
131 -9 151 30 24 46 38 215 39 455 1 201 -1 227 -22 300 -40 138 -44 157 -33
168 6 6 12 9 15 6 2 -2 40 -115 84 -250 94 -287 173 -493 206 -533 19 -24 32
-30 79 -34 110 -9 119 -1 177 171 22 63 53 146 71 183 47 104 76 183 99 275
35 146 53 200 64 196 12 -4 10 -76 -5 -172 -5 -33 -9 -91 -9 -129 0 -38 -7
-140 -16 -228 -9 -88 -14 -212 -12 -275 3 -104 5 -116 25 -133 26 -21 151 -35
213 -25 49 8 66 31 81 108 17 96 11 1259 -7 1277 -6 6 -48 15 -95 21 -106 14
-211 0 -244 -31 -49 -46 -122 -223 -173 -421 -28 -104 -44 -152 -99 -280 -37
-88 -49 -107 -58 -97 -13 14 -51 132 -85 263 -28 106 -63 208 -109 313 -20 48
-46 115 -56 150 -21 72 -53 113 -87 110 -13 -1 -79 -4 -146 -7z"/>
<path d="M6790 3591 c-65 -17 -199 -80 -233 -110 -38 -32 -39 -48 -12 -104 54
-107 91 -125 181 -87 88 38 129 43 175 20 60 -31 122 -90 109 -105 -10 -12
-105 -38 -190 -51 -92 -14 -249 -97 -289 -152 -11 -17 -21 -33 -21 -36 0 -3
-11 -29 -25 -58 -32 -66 -32 -115 1 -203 39 -104 60 -126 168 -180 91 -45 98
-47 152 -40 77 9 128 29 200 75 33 22 66 40 73 40 6 0 18 -15 26 -33 20 -49
31 -54 129 -67 112 -15 129 -9 146 57 19 68 15 531 -5 630 -44 215 -137 349
-280 402 -70 26 -209 27 -305 2z m258 -671 c2 -35 1 -74 -2 -85 -6 -23 -109
-95 -136 -95 -9 0 -38 16 -64 35 -50 39 -57 64 -31 115 25 49 134 102 200 97
30 -2 30 -3 33 -67z"/>
<path d="M9195 3591 c-33 -9 -105 -37 -160 -61 -84 -36 -110 -53 -166 -109
-95 -96 -120 -145 -135 -260 -30 -227 47 -438 208 -568 84 -68 206 -103 359
-103 85 0 96 2 158 35 81 43 121 79 121 109 0 13 -17 57 -37 97 -45 87 -54 91
-144 55 -79 -33 -116 -32 -204 2 -68 27 -70 29 -86 77 -27 85 -32 172 -14 260
25 121 36 138 108 169 71 30 120 33 177 10 40 -16 42 -16 67 7 37 35 123 159
123 179 0 48 -166 121 -269 119 -25 0 -73 -8 -106 -18z"/>
<path d="M2920 3591 c-236 -44 -355 -158 -420 -402 -25 -95 -25 -172 0 -289
25 -115 61 -180 150 -270 104 -105 215 -145 385 -138 81 4 112 10 155 30 67
31 194 138 243 206 48 65 61 98 82 209 17 90 17 92 -4 161 -28 93 -106 278
-136 324 -31 47 -139 124 -210 149 -64 22 -180 32 -245 20z m147 -304 c61 -30
80 -58 98 -145 29 -140 13 -252 -43 -305 -15 -14 -49 -37 -75 -51 -58 -30 -84
-24 -150 34 -37 33 -48 52 -70 122 -32 100 -33 141 -7 231 23 83 31 94 95 124
57 27 83 25 152 -10z"/>
<path d="M10160 3585 c-124 -25 -179 -53 -250 -124 -75 -76 -109 -140 -145
-273 -29 -108 -31 -146 -10 -248 27 -131 36 -154 83 -219 116 -164 242 -231
432 -231 109 0 162 15 241 66 81 53 205 182 229 238 21 47 50 180 50 228 0 40
-64 224 -114 330 -60 125 -174 210 -321 237 -73 14 -112 13 -195 -4z m164
-295 c49 -23 68 -38 80 -65 26 -54 38 -142 34 -236 -4 -77 -7 -91 -32 -124
-36 -47 -111 -95 -149 -95 -32 0 -110 49 -131 83 -8 12 -26 60 -41 106 -27 79
-27 86 -15 155 20 115 38 148 101 179 30 14 62 26 71 26 10 1 47 -13 82 -29z"/>
<path d="M3647 3573 c-10 -9 -9 -47 1 -58 14 -16 59 -145 85 -240 13 -49 47
-146 74 -215 28 -69 60 -156 72 -195 13 -38 53 -128 91 -200 60 -113 67 -133
57 -151 -12 -22 -59 -63 -135 -119 -26 -19 -60 -63 -95 -120 -74 -124 -81
-142 -59 -153 51 -27 93 -33 147 -23 30 6 80 16 110 22 125 24 294 225 379
450 23 60 45 141 77 284 6 28 37 113 69 190 31 77 63 167 70 200 7 33 28 105
48 160 50 145 50 150 11 164 -40 14 -192 14 -242 0 -46 -12 -49 -19 -88 -194
-16 -71 -33 -146 -39 -165 -5 -19 -16 -60 -24 -90 -57 -218 -68 -256 -75 -263
-9 -9 -23 33 -51 154 -20 88 -29 113 -80 223 -16 35 -38 97 -50 137 -11 41
-28 98 -36 127 -21 73 -42 82 -192 82 -65 0 -122 -3 -125 -7z"/>
<path d="M7573 3574 c-19 -8 -16 -25 21 -111 19 -44 44 -117 55 -164 28 -107
61 -201 111 -314 4 -11 21 -56 36 -100 30 -90 49 -131 118 -258 40 -75 47 -93
38 -112 -6 -12 -48 -51 -94 -86 -84 -66 -121 -111 -180 -225 -37 -71 -33 -83
31 -102 31 -10 58 -9 137 4 55 9 112 23 128 31 81 41 213 199 279 334 45 91
107 283 107 329 0 30 52 179 95 274 19 42 44 115 55 163 12 49 35 126 52 173
17 47 33 99 35 116 5 29 2 33 -32 44 -39 13 -223 9 -257 -5 -19 -7 -37 -59
-63 -175 -20 -90 -48 -205 -69 -280 -8 -30 -26 -97 -40 -149 -13 -51 -28 -97
-33 -102 -9 -9 -17 17 -52 163 -12 48 -34 116 -50 150 -64 141 -80 188 -118
345 -12 49 -36 58 -172 60 -69 1 -132 0 -138 -3z"/>
</g>
</svg>
